<?xml version="1.0" encoding="UTF-8"?>
<!DOCTYPE svg PUBLIC "-//W3C//DTD SVG 1.1//EN" "http://www.w3.org/Graphics/SVG/1.1/DTD/svg11.dtd">
<svg xmlns="http://www.w3.org/2000/svg" version="1.1" width="50px" height="50px" style="shape-rendering:geometricPrecision; text-rendering:geometricPrecision; image-rendering:optimizeQuality; fill-rule:evenodd; clip-rule:evenodd" xmlns:xlink="http://www.w3.org/1999/xlink">
<g><path style="opacity:0.9" fill="#111111" d="M 17.5,-0.5 C 22.1667,-0.5 26.8333,-0.5 31.5,-0.5C 40.5,2.5 46.5,8.5 49.5,17.5C 49.5,22.1667 49.5,26.8333 49.5,31.5C 48.0164,35.1323 46.0164,38.4656 43.5,41.5C 43.5,40.1667 42.8333,39.5 41.5,39.5C 46.4056,35.3302 48.2389,29.9969 47,23.5C 45.9384,22.1007 44.605,21.1007 43,20.5C 39.7278,21.2743 36.5611,22.2743 33.5,23.5C 33.5,22.8333 33.5,22.1667 33.5,21.5C 37.2864,20.8554 40.6197,19.3554 43.5,17C 45.2123,13.024 44.2123,9.85736 40.5,7.5C 36.1505,2.20351 31.3171,1.53684 26,5.5C 25.502,8.48162 25.3354,11.4816 25.5,14.5C 24.8333,14.5 24.1667,14.5 23.5,14.5C 23.6646,11.4816 23.498,8.48162 23,5.5C 20.8083,4.60051 18.6416,3.60051 16.5,2.5C 11.109,4.8272 7.10897,8.49387 4.5,13.5C 4.66178,15.8415 5.66178,17.6748 7.5,19C 10.0964,20.1356 12.763,20.969 15.5,21.5C 15.5,22.1667 15.5,22.8333 15.5,23.5C 12.3205,22.6072 9.15382,21.6072 6,20.5C 2.67694,21.6572 1.17694,23.9905 1.5,27.5C 1.59853,34.435 4.93187,38.435 11.5,39.5C 12.7387,39.0576 13.7387,38.3909 14.5,37.5C 14.8333,37.5 15.1667,37.5 15.5,37.5C 14.5216,45.5135 18.1883,48.8469 26.5,47.5C 24.5,48.1667 22.5,48.8333 20.5,49.5C 19.5,49.5 18.5,49.5 17.5,49.5C 8.5,46.5 2.5,40.5 -0.5,31.5C -0.5,26.8333 -0.5,22.1667 -0.5,17.5C 2.5,8.5 8.5,2.5 17.5,-0.5 Z"/></g>
<g><path style="opacity:1" fill="#ececec" d="M 33.5,21.5 C 30.4181,19.6281 27.7514,17.2948 25.5,14.5C 25.3354,11.4816 25.502,8.48162 26,5.5C 31.3171,1.53684 36.1505,2.20351 40.5,7.5C 44.2123,9.85736 45.2123,13.024 43.5,17C 40.6197,19.3554 37.2864,20.8554 33.5,21.5 Z"/></g>
<g><path style="opacity:1" fill="#ebebeb" d="M 23.5,14.5 C 21.2486,17.2948 18.5819,19.6281 15.5,21.5C 12.763,20.969 10.0964,20.1356 7.5,19C 5.66178,17.6748 4.66178,15.8415 4.5,13.5C 7.10897,8.49387 11.109,4.8272 16.5,2.5C 18.6416,3.60051 20.8083,4.60051 23,5.5C 23.498,8.48162 23.6646,11.4816 23.5,14.5 Z"/></g>
<g><path style="opacity:1" fill="#0b0b0b" d="M 23.5,14.5 C 24.1667,14.5 24.8333,14.5 25.5,14.5C 27.7514,17.2948 30.4181,19.6281 33.5,21.5C 33.5,22.1667 33.5,22.8333 33.5,23.5C 32.8875,27.163 32.7208,30.8297 33,34.5C 34.484,38.4877 37.3174,40.1544 41.5,39.5C 42.8333,39.5 43.5,40.1667 43.5,41.5C 40.1544,45.1711 36.1544,47.8378 31.5,49.5C 27.8333,49.5 24.1667,49.5 20.5,49.5C 22.5,48.8333 24.5,48.1667 26.5,47.5C 31.3043,48.1168 33.971,45.9502 34.5,41C 33.9169,38.5007 32.5836,36.5007 30.5,35C 26.5,34.3333 22.5,34.3333 18.5,35C 17.6266,36.045 16.6266,36.8783 15.5,37.5C 15.1667,37.5 14.8333,37.5 14.5,37.5C 15.7401,36.027 16.7401,34.3604 17.5,32.5C 16.3584,29.6008 15.6917,26.6008 15.5,23.5C 15.5,22.8333 15.5,22.1667 15.5,21.5C 18.5819,19.6281 21.2486,17.2948 23.5,14.5 Z"/></g>
<g><path style="opacity:1" fill="#e9e9e9" d="M 15.5,23.5 C 15.6917,26.6008 16.3584,29.6008 17.5,32.5C 16.7401,34.3604 15.7401,36.027 14.5,37.5C 13.7387,38.3909 12.7387,39.0576 11.5,39.5C 4.93187,38.435 1.59853,34.435 1.5,27.5C 1.17694,23.9905 2.67694,21.6572 6,20.5C 9.15382,21.6072 12.3205,22.6072 15.5,23.5 Z"/></g>
<g><path style="opacity:1" fill="#e9e9e9" d="M 41.5,39.5 C 37.3174,40.1544 34.484,38.4877 33,34.5C 32.7208,30.8297 32.8875,27.163 33.5,23.5C 36.5611,22.2743 39.7278,21.2743 43,20.5C 44.605,21.1007 45.9384,22.1007 47,23.5C 48.2389,29.9969 46.4056,35.3302 41.5,39.5 Z"/></g>
<g><path style="opacity:1" fill="#ececec" d="M 26.5,47.5 C 18.1883,48.8469 14.5216,45.5135 15.5,37.5C 16.6266,36.8783 17.6266,36.045 18.5,35C 22.5,34.3333 26.5,34.3333 30.5,35C 32.5836,36.5007 33.9169,38.5007 34.5,41C 33.971,45.9502 31.3043,48.1168 26.5,47.5 Z"/></g>
</svg>
