<svg xmlns="http://www.w3.org/2000/svg" width="50" height="50" style="shape-rendering:geometricprecision;text-rendering:geometricprecision;image-rendering:optimizequality;fill-rule:evenodd;clip-rule:evenodd"><path style="opacity:.9" fill="#111" d="M17.5-.5h14c9 3 15 9 18 18v14a38.216 38.216 0 0 1-6 10c0-1.333-.667-2-2-2 4.906-4.17 6.739-9.503 5.5-16-1.062-1.4-2.395-2.4-4-3a67.06 67.06 0 0 0-9.5 3v-2c3.786-.645 7.12-2.145 10-4.5 1.712-3.976.712-7.143-3-9.5-4.35-5.296-9.183-5.963-14.5-2a40.936 40.936 0 0 0-.5 9h-2a40.936 40.936 0 0 0-.5-9 83.98 83.98 0 0 1-6.5-3c-5.391 2.327-9.391 5.994-12 11 .162 2.341 1.162 4.175 3 5.5a37.944 37.944 0 0 0 8 2.5v2a155.959 155.959 0 0 1-9.5-3c-3.323 1.157-4.823 3.49-4.5 7 .099 6.935 3.432 10.935 10 12 1.239-.442 2.239-1.11 3-2h1c-.978 8.014 2.688 11.347 11 10l-6 2h-3c-9-3-15-9-18-18v-14c3-9 9-15 18-18Z"/><path style="opacity:1" fill="#ececec" d="M33.5 21.5a30.574 30.574 0 0 1-8-7 40.936 40.936 0 0 1 .5-9c5.317-3.963 10.15-3.296 14.5 2 3.712 2.357 4.712 5.524 3 9.5-2.88 2.355-6.214 3.855-10 4.5Z"/><path style="opacity:1" fill="#ebebeb" d="M23.5 14.5a30.574 30.574 0 0 1-8 7 37.944 37.944 0 0 1-8-2.5c-1.838-1.325-2.838-3.159-3-5.5 2.609-5.006 6.609-8.673 12-11a83.98 83.98 0 0 0 6.5 3c.498 2.982.665 5.982.5 9Z"/><path style="opacity:1" fill="#0b0b0b" d="M23.5 14.5h2a30.574 30.574 0 0 0 8 7v2a45.522 45.522 0 0 0-.5 11c1.484 3.988 4.317 5.654 8.5 5 1.333 0 2 .667 2 2-3.346 3.671-7.346 6.338-12 8h-11l6-2c4.804.617 7.471-1.55 8-6.5-.583-2.5-1.916-4.5-4-6-4-.667-8-.667-12 0a10.521 10.521 0 0 1-3 2.5h-1a18.659 18.659 0 0 0 3-5 29.361 29.361 0 0 1-2-9v-2a30.574 30.574 0 0 0 8-7Z"/><path style="opacity:1" fill="#e9e9e9" d="M15.5 23.5c.192 3.1.858 6.1 2 9a18.659 18.659 0 0 1-3 5c-.761.89-1.761 1.558-3 2-6.568-1.065-9.901-5.065-10-12-.323-3.51 1.177-5.843 4.5-7a155.959 155.959 0 0 0 9.5 3ZM41.5 39.5c-4.183.654-7.016-1.012-8.5-5-.28-3.67-.112-7.337.5-11a67.06 67.06 0 0 1 9.5-3c1.605.6 2.938 1.6 4 3 1.239 6.497-.594 11.83-5.5 16Z"/><path style="opacity:1" fill="#ececec" d="M26.5 47.5c-8.312 1.347-11.978-1.986-11-10a10.521 10.521 0 0 0 3-2.5c4-.667 8-.667 12 0 2.084 1.5 3.417 3.5 4 6-.529 4.95-3.196 7.117-8 6.5Z"/></svg>