<svg version="1.0" xmlns="http://www.w3.org/2000/svg" width="160" height="160" viewBox="0 0 120 120"><path d="M4 2c0 1.3-.7 2-2 2-2 0-2 .7-2 50.7v50.8l2.7 1.2c1.5.7 3.7 1.3 5 1.3 1.3 0 2.3.4 2.3 1s6.1 1 16.4 1c15.7 0 16.5.1 17.1 2 .4 1.1 1.7 2.8 3.1 3.6 1.3.9 2.4 2.3 2.4 3 0 1.9 12 2 12 .1 0-.6 1.4-2.8 3-4.7l2.9-3.5 12.6-.3c7-.2 13.8-.1 15.2.3 2.7.6 8.3 6.2 8.3 8.2 0 .9 1.9 1.3 6.5 1.3 5.9 0 6.5-.2 6.5-2.1 0-1.2.8-2.3 2-2.6 1.9-.5 2-1.4 2-20.9 0-17.6-.2-20.4-1.5-20.4-.9 0-2-1.1-2.5-2.5s-1.8-2.9-2.7-3.3c-1-.4-3.5-1.8-5.5-3.1l-3.8-2.3V34.9c0-26.6-.1-28-2-29.9-1.1-1.1-2-2.7-2-3.5C100 .2 94 0 52 0 4.7 0 4 0 4 2zm94.1 4.1c1.4 1.4 1.9 3 1.7 5.7l-.3 3.7h-95l-.3-3.7c-.2-2.7.3-4.3 1.7-5.7C8 4 8.9 4 52 4s44 0 46.1 2.1zm1.7 35.5.2 21.2-3.7 2.3c-10.1 6.2-19.8 6.4-27.2.7-3.2-2.4-11-2.4-14.2 0-1.3 1-3.2 2.1-4.2 2.5-.9.4-2.2 1.7-2.8 2.9-.5 1.3-1.6 3.4-2.4 4.8-1.1 1.8-1.5 6-1.5 15 0 8.5-.4 13-1.2 13.8-1.9 1.9-32 1.6-35.8-.3l-3-1.6V62.1c0-22.4.3-41.1.7-41.4.3-.4 21.8-.6 47.7-.5l47.1.3.3 21.1zM73 73.7c4.8 5.5 5.2 5.7 6.5 3.9.8-1 1.6-2.4 1.9-3 .5-1.1 3.1 1.5 3.9 3.8.2.6 2.7-1.5 5.6-4.7 5.3-5.6 5.4-5.7 10.9-5.7s5.8.2 9.9 4.7c6.1 6.7 6 12.6-.5 19.5-2.6 2.8-2.4 3.3 2.3 4 1.8.3 2 1.2 2.3 8.3.3 7.2.1 8.2-1.9 9.8-3.2 2.5-8.7 2.3-10-.6-2.2-4.9-8.7-14.7-10.8-16.5-2.1-1.7-21.6-1.7-23.1 0-2.2 2.6-6 8.9-6 9.9 0 .6-1.4 2.8-3.2 5-2.5 3.1-3.8 3.9-6.4 3.9-5 0-6.6-3-6.2-12.1.3-6.5.5-7.4 2.3-7.7 3.7-.7 3.8-2 .6-5.9-2.6-3.1-3.1-4.6-3.1-8.8 0-4.7.3-5.2 4.7-9.2 4.3-3.9 5.2-4.3 9.9-4.3 5.1 0 5.4.1 10.4 5.7zM92.5 101c.3.5.1 1.9-.5 3-1 1.8-2.1 2-10.1 2-9.3 0-11-.8-9.5-4.5.4-1.2 2.5-1.5 10-1.5 5.2 0 9.8.4 10.1 1z"/><path d="M84 9c-1.3.9-1.3 1.1 0 2 3.6 2.3 13.9.2 11.3-2.3-1-1.1-9.6-.8-11.3.3zM9 10c0 .5.7 1 1.5 1s1.5-.5 1.5-1c0-.6-.7-1-1.5-1S9 9.4 9 10zM20 10c0 .5.7 1 1.5 1s1.5-.5 1.5-1c0-.6-.7-1-1.5-1s-1.5.4-1.5 1zM29 10c0 .5.7 1 1.5 1s1.5-.5 1.5-1c0-.6-.7-1-1.5-1s-1.5.4-1.5 1zM36 30.5c0 .8-.5 1.5-1 1.5-2 0-11 9.9-11 12 0 2.1 12.1 15 14 15 2.2 0 .7-2.3-4.5-7.5-6.7-6.5-7-8.7-1.5-13.5 2.2-1.9 4-4 4-4.6 0-.7.7-1.4 1.5-1.8.8-.3 1.5-1 1.5-1.6 0-.5-.7-1-1.5-1s-1.5.7-1.5 1.5zM56 31.2c0 1.3-.9 3.1-2 4.1-1.1.9-2 2.6-2 3.8 0 1.1-.9 3.2-2 4.6-1.1 1.4-2 3.9-2 5.6 0 1.6-.6 3.5-1.4 4.1-2.2 1.7-2.4 5-.3 5.4 1.3.3 1.7-.3 1.7-2.7 0-2 .5-3.1 1.4-3.1 1.5 0 2.6-2.1 2.6-4.8 0-.8.7-2.3 1.5-3.2.9-1 1.9-3.5 2.2-5.6.4-2.2 1.2-4.4 1.9-4.9 2-1.6 2.1-4.9.2-5.3-1.3-.2-1.8.3-1.8 2zM65 30c0 .6 2.5 3.5 5.5 6.5 3.3 3.2 5.5 6.2 5.5 7.5 0 1.3-2.2 4.3-5.5 7.5-5.2 5.2-6.7 7.5-4.5 7.5 2 0 14-12.9 14-15 0-1.3-2.5-4.6-6.5-8.6-6.3-6.2-8.5-7.6-8.5-5.4zM60.2 77.4c-.6 1.3-2 2.7-3.1 3.1-2.8.8-2.6 1.9.3 3.3 1.3.6 2.7 2 3.1 3.1.3 1.2 1 2.1 1.5 2.1s1.2-.9 1.5-2.1c.4-1.1 1.8-2.5 3.1-3.1 1.3-.6 2.4-1.4 2.4-1.8 0-.4-1.1-1.2-2.4-1.8-1.3-.6-2.7-2-3.1-3.1-.8-2.8-1.9-2.6-3.3.3zM100.7 77.5c-.7 1.6.8 2.9 2.3 2 1-.6.2-3.5-1-3.5-.4 0-1 .7-1.3 1.5zM97 81c-1.3.9-1.3 1.1 0 2 .9.6 1.8.6 2.4 0 1.5-1.5-.6-3.1-2.4-2zM105 82c0 .5.7 1 1.5 1s1.5-.5 1.5-1c0-.6-.7-1-1.5-1s-1.5.4-1.5 1zM100.6 84.8c-.2.4 0 1.4.5 2.2.8 1.3 1 1.3 1.8 0 1-1.5.6-3-.9-3-.5 0-1.1.4-1.4.8zM76 90c0 .5.7 1 1.5 1s1.5-.5 1.5-1c0-.6-.7-1-1.5-1s-1.5.4-1.5 1zM85 90c0 .5.7 1 1.5 1s1.5-.5 1.5-1c0-.6-.7-1-1.5-1s-1.5.4-1.5 1z"/></svg>