<svg version="1.0" xmlns="http://www.w3.org/2000/svg" width="40" height="40" viewBox="0 0 30 30"><path d="M19.2 1.2C18.6 1.8 18 3 18 3.7S16.9 5 15.5 5c-2 0-2.5.5-2.5 2.5 0 1.8.7 2.8 2.5 3.5 3.7 1.4 3.3 3.8-.6 3.2-2-.3-3.3-1.2-3.9-2.8-1.3-3.2-4.8-3.2-6 .1C4.4 13 3.3 14 2 14c-1.8 0-2 .6-2 8v8.1l8.3-.3c7.8-.3 8.2-.4 8.2-2.6 0-1.2-.3-2.1-.6-2-1 .5-4-2.4-3.6-3.5.2-.6 3.9-.9 9-.8l8.7.2v-3c0-2.4-.4-3.1-2-3.1-1.3 0-2-.7-2-2s.7-2 2-2c1.6 0 2-.7 2-3 0-2.4-.4-3-2.3-3-1.3 0-2.6-.9-3.2-2.2C23.3.1 21-.6 19.2 1.2zm4.6 2.6c.3 1.6 1 2.2 2.8 2.2 3 0 3.4 3.5.4 4.3-1.2.3-2 1.4-2 2.6 0 1.1.9 2.6 2 3.3 4 2.5 2.3 3.8-5 3.8-5.5 0-7-.3-7-1.5 0-.8.9-1.9 2-2.5 1.1-.6 2-2 2-3.1 0-1.2-.8-2.3-2-2.6-1.1-.3-2-1.4-2-2.4 0-1.2.7-1.9 2-1.9s2-.7 2-1.8c0-3.9 4.3-4.3 4.8-.4zM10 12.4c.5 1.3 1.6 2.6 2.4 2.8 1.4.3 1.4.6.1 3.2-2 3.8-1.9 5.3.5 6.6 1.1.6 2 1.7 2 2.5 0 1.2-1.5 1.5-7 1.5H1v-7c0-6.4.2-7 2-7 1.3 0 2.4-1 3-2.5 1.2-3.2 2.8-3.2 4-.1z"/></svg>