<svg xmlns="http://www.w3.org/2000/svg" width="16" height="16" style="shape-rendering:geometricprecision;text-rendering:geometricprecision;image-rendering:optimizequality;fill-rule:evenodd;clip-rule:evenodd"><path d="M6.5-.5h2c.297 3.895 1.63 4.562 4 2 1.231 1.15 1.231 2.317 0 3.5.744 1.039 1.744 1.539 3 1.5v2c-1.256-.039-2.256.461-3 1.5 1.143 3.697.31 4.197-2.5 1.5-.41 1.4-.91 2.734-1.5 4h-2c.039-1.256-.461-2.256-1.5-3-1.183 1.231-2.35 1.231-3.5 0 1.484-2.366.817-3.7-2-4v-2c2.817-.3 3.484-1.634 2-4 1.15-1.231 2.317-1.231 3.5 0 1.039-.744 1.539-1.744 1.5-3Z"/></svg>