<svg version="1.0" xmlns="http://www.w3.org/2000/svg" width="160" height="160" viewBox="0 0 120 120"><path d="M83.5 11.3c-1.1.7-10.9 10.1-21.8 21-19.3 19.3-24.1 23-26.1 19.8-1.3-2-4.4-1.1-8 2.3-3.7 3.5-4.9 8.2-2.3 9.2.8.3 2.4 1.8 3.6 3.4l2.2 3-3.3 3.7c-1.8 2-7 7.4-11.5 11.9-4.6 4.6-8.3 8.8-8.3 9.5 0 1.5 13.9 15.7 16.1 16.4 1.3.5 4.8-2.4 13.4-10.9 6.4-6.4 12-11.6 12.4-11.6.4 0 2.4 1.6 4.4 3.5 4.4 4.2 7 4.4 10.6.7 3.8-3.7 4.6-6.6 2.7-9.3-1.1-1.7-1.2-2.7-.4-4.2.5-1.1 9.8-10.8 20.7-21.6 10.8-10.7 20.2-20.6 20.9-21.9.7-1.5 1.2-6.4 1.2-12.7 0-13.4-.1-13.5-14.1-13.4-5.8.1-11.3.6-12.4 1.2zm13.1 5.2c1.8 1.4.6 2.7-21.7 25-13 12.9-24 23.5-24.6 23.5-1.6 0-6.3-4.7-6.3-6.3 0-1.7 39.7-41.6 42.5-42.8 3.2-1.3 8-1 10.1.6zm7.8 8.7c2.2 6.3.7 8.4-21.1 30.2C72 66.7 62.1 76 61.3 76c-1.6 0-6.3-4.7-6.3-6.3 0-1.6 46.3-47.8 47.5-47.4.5.2 1.4 1.5 1.9 2.9zm-56 46.7c9.8 9.8 13.7 14.4 13.3 15.5-1.3 3.4-4.7 1.1-17.5-11.7-12.1-12.2-14.4-15.2-12.5-17 1.5-1.6 3.5 0 16.7 13.2zM41 78.8c5.5 5.5 5.2 6.5-5.1 16.9-10.4 10.4-11.6 10.8-16.9 5.5-5.5-5.5-5.2-6.5 5.1-16.9C34.5 73.9 35.7 73.5 41 78.8z"/></svg>