<svg aria-hidden="true" xmlns="http://www.w3.org/2000/svg"><defs><symbol id="icon-logo"><path d="m8.8 9.943-8 8 8 8m16-16 8 8-8 8M19.628 4.034l-6.87 25.637a.654.654 0 1 1-1.261-.342l-.001.005 6.87-25.638a.654.654 0 1 1 1.261.343l.001-.005z"/><path d="M18.366 3.696a.654.654 0 1 1 1.261.343l.001-.005-.837 3.122-1.262-.338.837-3.122zM20.556 5.618l2.523.677m-8.831-2.367 2.523.676M15.717.969l1.31 2.248M14.07 7.118l2.258-1.292m3.893 1.043 1.31 2.248m-.611-4.858 2.258-1.291M44.013 12.058a3.69 3.69 0 0 1-1.805-.442 3.308 3.308 0 0 1-1.249-1.204l-.008-.015a3.428 3.428 0 0 1-.452-1.711v-.048.002c0-.646.15-1.229.451-1.747.306-.52.736-.938 1.25-1.22l.017-.008a3.7 3.7 0 0 1 1.805-.442c.499 0 .96.083 1.382.25s.781.41 1.075.73l-.451.451c-.525-.531-1.187-.797-1.987-.797h-.036c-.519 0-1.006.135-1.428.373l.015-.008a2.698 2.698 0 0 0-1.027.998c-.23.397-.365.873-.365 1.381v.041-.002c0 .525.122.998.365 1.421.25.422.592.755 1.027.998.408.23.895.365 1.414.365h.038-.002c.806 0 1.469-.269 1.987-.806l.451.451c-.294.32-.656.566-1.085.739-.399.158-.861.25-1.344.25h-.041.002zm5.677-.01h-.039c-.468 0-.908-.121-1.289-.334l.014.007a2.466 2.466 0 0 1-.915-.91l-.006-.012a2.578 2.578 0 0 1-.336-1.283v-.044.002c0-.493.112-.934.336-1.325s.531-.694.922-.912a2.618 2.618 0 0 1 1.276-.327h.041-.002c.486 0 .925.109 1.315.326s.694.522.912.912c.224.39.336.832.336 1.325s-.112.934-.336 1.325a2.398 2.398 0 0 1-.9.915l-.012.006a2.618 2.618 0 0 1-1.276.327h-.041.002zm0-.605c.358 0 .678-.08.96-.24.288-.166.512-.4.672-.701s.24-.643.24-1.027-.08-.726-.24-1.027a1.665 1.665 0 0 0-.672-.691 1.831 1.831 0 0 0-.929-.25h-.033.002a1.9 1.9 0 0 0-.97.25 1.74 1.74 0 0 0-.672.691c-.16.301-.24.643-.24 1.027s.08.726.24 1.027c.166.301.39.534.672.701.288.16.611.24.97.24zm8.562-6.566V12H57.6v-.998c-.198.33-.474.595-.805.772l-.011.005c-.317.17-.693.269-1.092.269h-.043.002-.034c-.46 0-.892-.121-1.265-.333l.013.007a2.34 2.34 0 0 1-.896-.9l-.006-.012c-.218-.39-.326-.835-.326-1.334s.109-.944.326-1.334c.212-.383.519-.69.891-.896l.012-.006a2.54 2.54 0 0 1 1.252-.327h.036-.002c.41 0 .778.086 1.104.259.338.172.614.424.811.731l.005.008V4.877h.682zm-2.544 6.566c.352 0 .669-.08.95-.24.288-.166.512-.4.672-.701.166-.301.25-.643.25-1.027s-.083-.726-.25-1.027a1.665 1.665 0 0 0-.672-.691 1.812 1.812 0 0 0-.923-.25h-.028.001a1.9 1.9 0 0 0-.97.25 1.74 1.74 0 0 0-.672.691c-.16.301-.24.643-.24 1.027s.08.726.24 1.027c.166.301.39.534.672.701.288.16.611.24.97.24zM60.15 6.95h.682V12h-.682V6.95zm.346-1.104h-.011a.481.481 0 0 1-.344-.144.47.47 0 0 1-.144-.339v-.006c0-.128.048-.24.144-.336s.214-.144.355-.144.259.048.355.144a.43.43 0 0 1 .144.326.482.482 0 0 1-.144.355.481.481 0 0 1-.344.144h-.012.001zm4.806 1.066c.634 0 1.136.186 1.507.557.378.365.566.899.566 1.603V12h-.682V9.139c0-.525-.131-.925-.394-1.2s-.637-.413-1.123-.413c-.544 0-.976.163-1.296.49-.314.32-.47.765-.47 1.334V12h-.682V6.95h.653v.931c.186-.307.442-.544.768-.71a2.463 2.463 0 0 1 1.152-.259zm8.617.038v4.435c0 .858-.211 1.491-.634 1.901-.416.416-1.046.624-1.891.624h-.02a4.18 4.18 0 0 1-1.344-.22l.03.009c-.416-.134-.755-.323-1.018-.566l.346-.518c.243.218.538.387.883.509.352.122.72.182 1.104.182.64 0 1.11-.15 1.411-.451.301-.294.451-.755.451-1.382v-.643c-.211.32-.49.563-.835.73-.321.158-.699.25-1.098.25h-.037.002-.033c-.461 0-.896-.114-1.278-.315l.015.007a2.41 2.41 0 0 1-.906-.863l-.006-.011a2.486 2.486 0 0 1-.327-1.238v-.04.002c0-.474.109-.896.326-1.267.224-.371.528-.659.912-.864a2.674 2.674 0 0 1 1.254-.308h.044-.002c.429 0 .816.086 1.162.259s.624.422.835.749v-.97h.653zm-2.582 4.253c.365 0 .694-.077.989-.23.294-.16.522-.381.682-.662.166-.282.25-.602.25-.96v-.035c0-.338-.093-.653-.254-.923l.005.008a1.652 1.652 0 0 0-.672-.649l-.009-.004a2.003 2.003 0 0 0-.989-.24c-.365 0-.694.077-.989.23a1.72 1.72 0 0 0-.682.653c-.16.282-.24.602-.24.96s.08.678.24.96c.166.282.394.502.682.662a2.1 2.1 0 0 0 .989.23zm-8.971 7.559a15.73 15.73 0 0 0-.45.708c-.112.176-.288.477-.458.783l-.072.14c-.159.285-.317.588-.473.91-.2.386-.478.997-.74 1.617l-.09.239c-.077.143-.276.637-.468 1.135l-.122.361c-.031.078-.088.117-.168.117h-.003a.166.166 0 0 1-.106-.038.202.202 0 0 1-.061-.102v-.001l-.046-.197c-.325-1.591-.425-2.019-.527-2.445l.237 1.175a34.62 34.62 0 0 0-.291-1.317l.088.431c-.068-.31-.138-.622-.21-.938s-.139-.616-.202-.9a17.058 17.058 0 0 1-.679 1.68l.046-.11c-.211.462-.427.85-.669 1.221l.022-.035a5.041 5.041 0 0 1-.688.843l-.001.001a3.39 3.39 0 0 1-.724.544l-.017.009a3.001 3.001 0 0 1-.811.296 4.213 4.213 0 0 1-.869.088h-.028.001c-.162 0-.336-.018-.52-.056a2.723 2.723 0 0 1-.567-.171l.018.007a2.991 2.991 0 0 1-.53-.287l.01.006a2.123 2.123 0 0 1-.437-.395l-.003-.003a1.888 1.888 0 0 1-.301-.513l-.005-.013a1.801 1.801 0 0 1-.112-.631v-.026.001c0-.253.053-.484.159-.694.106-.213.25-.394.432-.544.181-.153.39-.272.627-.356.241-.085.494-.126.76-.126.194 0 .366.017.52.051.156.032.294.072.412.122s.221.105.305.165c.085.059.155.114.211.164s.097.094.122.131c.012.02.026.036.042.051a.177.177 0 0 1-.023.22.158.158 0 0 1-.12.056h-.01a.179.179 0 0 1-.147-.079v-.001l-.069-.077-.006-.007a.983.983 0 0 0-.225-.181l-.005-.002a1.803 1.803 0 0 0-.399-.174l-.013-.003a1.975 1.975 0 0 0-.564-.081l-.048.001h.002c-.219 0-.426.034-.624.103-.194.066-.363.16-.51.281a1.43 1.43 0 0 0-.347.436c-.08.156-.127.339-.127.534v.016-.001c0 .197.033.376.098.539s.154.308.262.436c.11.128.235.238.373.329l.007.004a2.534 2.534 0 0 0 1.369.412c.238 0 .469-.017.694-.051.228-.038.451-.106.67-.206.222-.1.439-.238.651-.412.213-.176.424-.404.633-.685s.416-.62.619-1.017c.281-.536.552-1.175.774-1.836l.028-.096.182-.567a9.636 9.636 0 0 1-.11-.641l-.007-.061a4.328 4.328 0 0 1-.033-.48v-.003c0-.138.01-.247.032-.328a.46.46 0 0 1 .086-.184l-.001.001a.21.21 0 0 1 .111-.08h.001a.326.326 0 0 1 .222.001l-.002-.001a.214.214 0 0 1 .109.085c.034.041.062.102.085.183s.032.19.032.328c0 .15-.014.323-.042.52a7.142 7.142 0 0 1-.137.703l.011-.051c.04.19.087.403.14.638 1.411 7.133 1.588 7.897 1.765 8.66l-1.254-6.392.16.717.144.618.31-.768a36.81 36.81 0 0 1 .99-2.246l-.108.25c.168-.354.34-.686.515-.999.262-.476.487-.848.724-1.211l-.044.073c.206-.319.384-.582.534-.788.165-.232.327-.433.498-.625l-.006.007a.171.171 0 0 1 .123-.052h.004c.053 0 .095.019.126.056a.165.165 0 0 1 .037.189v-.001a5.838 5.838 0 0 0-.16.408l-.032.099c-.054.153-.113.334-.178.544-.125.374-.249.85-.347 1.337l-.014.083c-.064.336-.11.732-.127 1.136l-.001.017a7.172 7.172 0 0 0 .021 1.041l-.002-.028c.018.21.05.411.094.605.048.21.109.393.186.567l-.008-.019c.075.169.167.318.277.446s.238.231.389.31c.153.078.33.12.53.126a.145.145 0 0 1 .116.065v.001a.184.184 0 0 1 .047.122c0 .046-.02.088-.051.118a.164.164 0 0 1-.12.051h-.002c-.05 0-.1-.005-.15-.014a1.694 1.694 0 0 1-.595-.192 1.776 1.776 0 0 1-.444-.364l-.002-.002a2.116 2.116 0 0 1-.309-.483l-.005-.013a3.353 3.353 0 0 1-.192-.576l-.005-.024a4.556 4.556 0 0 1-.106-.641l-.002-.02A8.502 8.502 0 0 1 61.896 21l-.003.037c.06-.595.158-1.133.293-1.655l-.017.075c.062-.246.126-.476.192-.688zm5.395 4.73-.08.16a3.128 3.128 0 0 1-.15.272 3.653 3.653 0 0 1-.219.334l.007-.01c-.081.112-.172.216-.272.309s-.208.172-.323.234a.785.785 0 0 1-.365.09h-.016a.648.648 0 0 1-.443-.174 1.006 1.006 0 0 1-.265-.429l-.002-.007c-.106.178-.233.32-.38.426a.756.756 0 0 1-.439.155h-.011a.773.773 0 0 1-.309-.064l.005.002a.734.734 0 0 1-.239-.177l-.001-.001a.865.865 0 0 1-.152-.266l-.002-.006a1.04 1.04 0 0 1-.052-.328v-.01c0-.244.041-.458.122-.642.08-.182.187-.337.318-.469.118-.117.258-.212.413-.278l.009-.003c.157-.062.306-.094.45-.094a1.068 1.068 0 0 1 .662.26l-.002-.001c.034.04.052.082.052.126 0 .049-.02.094-.052.126a.165.165 0 0 1-.121.052H65.9a.171.171 0 0 1-.123-.052.44.44 0 0 0-.041-.031l-.001-.001a.509.509 0 0 0-.086-.056l-.003-.001a.62.62 0 0 0-.132-.046l-.004-.001a.584.584 0 0 0-.166-.024h-.008c-.097 0-.2.022-.31.066s-.21.112-.3.206a1.152 1.152 0 0 0-.227.339l-.003.007a1.221 1.221 0 0 0-.069.683l-.001-.008a.5.5 0 0 0 .067.166l-.001-.002a.38.38 0 0 0 .125.121l.002.001a.378.378 0 0 0 .197.048.423.423 0 0 0 .194-.058l-.002.001a.67.67 0 0 0 .21-.172l.001-.001a1.424 1.424 0 0 0 .3-.717.169.169 0 0 1 .061-.108.175.175 0 0 1 .12-.047h.002c.044 0 .082.018.112.052.031.03.052.071.056.116v.001l.019.254c.01.106.03.212.061.318a.832.832 0 0 0 .15.277.335.335 0 0 0 .255.117h.018-.001a.44.44 0 0 0 .222-.062l-.002.001a.988.988 0 0 0 .216-.16 1.73 1.73 0 0 0 .202-.229c.114-.15.22-.319.31-.497l.008-.019.103-.211a.19.19 0 0 1 .065-.08h.001a.19.19 0 0 1 .098-.027h.006a.15.15 0 0 1 .121.061.177.177 0 0 1 .052.121.168.168 0 0 1-.015.067v-.001zm1.373 1.768c.587-.766.995-1.402 1.224-1.909a.164.164 0 0 1 .153-.102h.001c.053 0 .096.018.131.056a.165.165 0 0 1 .038.188v-.001a7.382 7.382 0 0 1-.586 1.046c-.337.501-.653.926-.986 1.336l.026-.032c0 .197.002.394.005.59s.005.413.005.647a12.211 12.211 0 0 1-.075 1.35c-.029.22-.07.415-.125.605l.007-.029a1.717 1.717 0 0 1-.192.468l.004-.008a.895.895 0 0 1-.274.302l-.003.002a.638.638 0 0 1-.365.114h-.015.001l-.026.001a.552.552 0 0 1-.456-.239l-.001-.002c-.112-.159-.168-.386-.168-.679 0-.156.014-.326.042-.511.032-.181.075-.368.131-.562s.123-.39.202-.59c.082-.197.17-.389.267-.576s.202-.368.314-.54a3.91 3.91 0 0 1 .366-.468 30.83 30.83 0 0 1 .018-1.247 1.06 1.06 0 0 1-.332.279l-.006.003a.812.812 0 0 1-.384.102h-.009a.71.71 0 0 1-.295-.063l.005.002a.687.687 0 0 1-.224-.177l-.001-.001a.866.866 0 0 1-.144-.266l-.002-.006a1.04 1.04 0 0 1-.052-.328v-.01c0-.244.041-.458.122-.642.08-.182.187-.337.318-.469.118-.117.258-.212.413-.278l.009-.003c.157-.062.306-.094.45-.094.097 0 .186.012.267.037s.15.054.206.085a.697.697 0 0 1 .187.136.178.178 0 0 1 0 .252.165.165 0 0 1-.121.052h-.001a.194.194 0 0 1-.126-.052 1.23 1.23 0 0 0-.043-.032l-.009-.006a.466.466 0 0 0-.194-.103l-.003-.001a.56.56 0 0 0-.146-.019h-.014.001a.86.86 0 0 0-.309.066.92.92 0 0 0-.314.197c-.097.09-.178.208-.244.352a1.192 1.192 0 0 0-.099.477l.001.035v-.002c0 .15.032.272.098.366.066.09.167.136.304.136a.447.447 0 0 0 .209-.057l-.002.001a.716.716 0 0 0 .215-.173l.001-.001c.068-.078.128-.176.178-.296.054-.123.093-.265.111-.413l.001-.007a.169.169 0 0 1 .061-.108.175.175 0 0 1 .12-.047h.002c.053 0 .094.019.122.056a.19.19 0 0 1 .047.127l-.005.145-.01.366-.014.534-.01.638zm-.356 1.026c-.147.203-.28.424-.398.662-.1.196-.203.435-.291.682l-.014.044c-.085.244-.15.48-.197.708a3.258 3.258 0 0 0-.066.616V29c0 .116.009.208.028.277a.52.52 0 0 0 .076.161l-.001-.002a.24.24 0 0 0 .099.075.331.331 0 0 0 .355-.098.968.968 0 0 0 .18-.308l.002-.007c.05-.128.091-.277.122-.446s.054-.344.07-.525a12.533 12.533 0 0 0 .042-1.026v-.403a8.31 8.31 0 0 0-.009-.413zm2.348-5.166v.006a.412.412 0 0 1-.126.298.404.404 0 0 1-.291.122h-.015a.424.424 0 0 1-.298-.122.422.422 0 0 1-.122-.298v-.006a.426.426 0 0 1 .122-.301.41.41 0 0 1 .302-.127c.06 0 .117.012.169.034l-.003-.001a.397.397 0 0 1 .136.093.403.403 0 0 1 .126.294v.006zm-.759 2.747c0-.45.028-.898.084-1.346a.19.19 0 0 1 .056-.112.178.178 0 0 1 .126-.052h.007c.046 0 .086.019.117.056a.173.173 0 0 1 .047.122c0 .018-.005.075-.014.168a13.02 13.02 0 0 1-.028.338l-.028.412a9.73 9.73 0 0 0-.01.398c0 .166.016.3.047.403.028.09.072.168.127.236l-.001-.001a.409.409 0 0 0 .161.111l.003.001c.05.017.108.028.168.029a.488.488 0 0 0 .272-.094c.109-.076.202-.163.284-.26l.002-.002c.1-.112.2-.247.3-.403.1-.16.198-.336.296-.53a.157.157 0 0 1 .065-.07h.001a.161.161 0 0 1 .092-.028h.002c.05 0 .09.018.122.056.031.031.05.074.051.121a.163.163 0 0 1-.018.08c-.038.072-.084.16-.141.262a4.536 4.536 0 0 1-.438.656l.007-.009a2.569 2.569 0 0 1-.27.289l-.002.002a1.463 1.463 0 0 1-.296.203l-.008.004a.755.755 0 0 1-.698-.011l.004.002a.87.87 0 0 1-.27-.237l-.002-.002a1.102 1.102 0 0 1-.163-.344l-.002-.008a1.75 1.75 0 0 1-.051-.428v-.012.001zm.497-2.747v-.001a.148.148 0 0 0-.051-.111.146.146 0 0 0-.112-.052H70.7a.146.146 0 0 0-.112.052.15.15 0 0 0-.048.111v.001c0 .044.016.082.048.113.03.032.068.047.112.047s.082-.016.112-.047a.146.146 0 0 0 .052-.112zm4.58 2.382a6.798 6.798 0 0 0-.098.187 2.45 2.45 0 0 1-.189.318l.005-.008c-.075.112-.166.23-.272.352-.218.259-.498.46-.816.581l-.014.005a1.492 1.492 0 0 1-.537.099h-.017.001a1.1 1.1 0 0 1-.474-.098.991.991 0 0 1-.351-.266l-.001-.002a1.243 1.243 0 0 1-.218-.408l-.002-.009a1.768 1.768 0 0 1-.075-.53v-.012c0-.183.029-.359.083-.524l-.003.012a1.44 1.44 0 0 1 .216-.431c.094-.122.202-.217.323-.286a.748.748 0 0 1 .675-.05l-.005-.002a.593.593 0 0 1 .21.141c.06.059.105.125.136.197a.492.492 0 0 1 .052.216v.005a.63.63 0 0 1-.029.191l.001-.005a.634.634 0 0 1-.067.162l.002-.003a.408.408 0 0 1-.089.108h-.001a.18.18 0 0 1-.234-.015.178.178 0 0 1-.031-.193v.001l.037-.056a.316.316 0 0 0 .056-.181v-.012.001c0-.066-.031-.126-.094-.178a.329.329 0 0 0-.216-.08h-.014.001a.451.451 0 0 0-.254.081l.001-.001a.77.77 0 0 0-.205.213l-.002.003a1.186 1.186 0 0 0-.197.684v.01-.001c0 .128.016.25.046.366.032.116.078.219.141.31a.717.717 0 0 0 .234.211c.097.053.211.08.342.08.168 0 .325-.03.469-.09.144-.062.275-.141.394-.234s.224-.195.314-.304c.075-.092.151-.194.221-.3l.009-.014c.079-.115.151-.246.21-.384l.006-.015a.14.14 0 0 1 .059-.07h.001a.182.182 0 0 1 .099-.028c.053 0 .095.018.126.056.034.038.051.08.051.126a.218.218 0 0 1-.019.077l.001-.001z"/></symbol><symbol id="icon-search"><path d="m31.008 27.231-7.58-6.447c-.784-.705-1.622-1.029-2.299-.998a11.954 11.954 0 0 0 2.87-7.787c0-6.627-5.373-12-12-12s-12 5.373-12 12 5.373 12 12 12c2.972 0 5.691-1.081 7.787-2.87-.031.677.293 1.515.998 2.299l6.447 7.58c1.104 1.226 2.907 1.33 4.007.23s.997-2.903-.23-4.007zM12 20a8 8 0 1 1 0-16 8 8 0 0 1 0 16z"/></symbol><symbol id="icon-burger-menu-button"><path d="M45.714 4.571 25.143 27.428 4.572 4.571"/></symbol></defs></svg>