<svg version="1.0" xmlns="http://www.w3.org/2000/svg" width="40" height="40" viewBox="0 0 30 30"><path d="M1.2 1.2c-1.7 1.7-1.7 25.9 0 27.6 1.7 1.7 25.9 1.7 27.6 0 1.7-1.7 1.7-25.9 0-27.6C27.1-.5 2.9-.5 1.2 1.2zM14 8v6H2V2h12v6zm14 0v6H16V2h12v6zM14 22v6H2V16h12v6zm14 0v6H16V16h12v6z"/><path d="M19.8 5.1C16.5 7 18.3 12 22.2 12c1.5 0 3.8-2.7 3.8-4.4 0-.7-3.1-3.6-3.8-3.6-.4 0-1.5.5-2.4 1.1zm3.7 3c0 .7-.8 1.5-1.7 1.7-1.8.3-2.5-1.8-1.1-3.2 1-1 2.8-.1 2.8 1.5zM5.6 21.8c0 1.9.7 2.6 2.6 2.8 2.1.2 2.5-.2 2.5-2.5s-.5-2.8-2.6-2.8c-2.2 0-2.6.5-2.5 2.5z"/></svg>