<?xml version="1.0" standalone="no"?>
<!DOCTYPE svg PUBLIC "-//W3C//DTD SVG 20010904//EN"
 "http://www.w3.org/TR/2001/REC-SVG-20010904/DTD/svg10.dtd">
<svg version="1.0" xmlns="http://www.w3.org/2000/svg"
 width="120.000000pt" height="120.000000pt" viewBox="0 0 120.000000 120.000000"
 preserveAspectRatio="xMidYMid meet">

<g transform="translate(0.000000,120.000000) scale(0.100000,-0.100000)"
fill="#000000" stroke="none">
<path d="M40 1180 c0 -13 -7 -20 -20 -20 -20 0 -20 -7 -20 -507 l0 -508 27
-12 c15 -7 37 -13 50 -13 13 0 23 -4 23 -10 0 -6 61 -10 164 -10 157 0 165 -1
171 -20 4 -11 17 -28 31 -36 13 -9 24 -23 24 -30 0 -19 120 -20 120 -1 0 6 14
28 30 47 l29 35 126 3 c70 2 138 1 152 -3 27 -6 83 -62 83 -82 0 -9 19 -13 65
-13 59 0 65 2 65 21 0 12 8 23 20 26 19 5 20 14 20 209 0 176 -2 204 -15 204
-9 0 -20 11 -25 25 -5 14 -18 29 -27 33 -10 4 -35 18 -55 31 l-38 23 0 279 c0
266 -1 280 -20 299 -11 11 -20 27 -20 35 0 13 -60 15 -480 15 -473 0 -480 0
-480 -20z m941 -41 c14 -14 19 -30 17 -57 l-3 -37 -475 0 -475 0 -3 37 c-2 27
3 43 17 57 21 21 30 21 461 21 431 0 440 0 461 -21z m17 -355 l2 -212 -37 -23
c-101 -62 -198 -64 -272 -7 -32 24 -110 24 -142 0 -13 -10 -32 -21 -42 -25 -9
-4 -22 -17 -28 -29 -5 -13 -16 -34 -24 -48 -11 -18 -15 -60 -15 -150 0 -85 -4
-130 -12 -138 -19 -19 -320 -16 -358 3 l-30 16 0 408 c0 224 3 411 7 414 3 4
218 6 477 5 l471 -3 3 -211z m-268 -321 c48 -55 52 -57 65 -39 8 10 16 24 19
30 5 11 31 -15 39 -38 2 -6 27 15 56 47 53 56 54 57 109 57 55 0 58 -2 99 -47
61 -67 60 -126 -5 -195 -26 -28 -24 -33 23 -40 18 -3 20 -12 23 -83 3 -72 1
-82 -19 -98 -32 -25 -87 -23 -100 6 -22 49 -87 147 -108 165 -21 17 -216 17
-231 0 -22 -26 -60 -89 -60 -99 0 -6 -14 -28 -32 -50 -25 -31 -38 -39 -64 -39
-50 0 -66 30 -62 121 3 65 5 74 23 77 37 7 38 20 6 59 -26 31 -31 46 -31 88 0
47 3 52 47 92 43 39 52 43 99 43 51 0 54 -1 104 -57z m195 -273 c3 -5 1 -19
-5 -30 -10 -18 -21 -20 -101 -20 -93 0 -110 8 -95 45 4 12 25 15 100 15 52 0
98 -4 101 -10z"/>
<path d="M840 1110 c-13 -9 -13 -11 0 -20 36 -23 139 -2 113 23 -10 11 -96 8
-113 -3z"/>
<path d="M90 1100 c0 -5 7 -10 15 -10 8 0 15 5 15 10 0 6 -7 10 -15 10 -8 0
-15 -4 -15 -10z"/>
<path d="M200 1100 c0 -5 7 -10 15 -10 8 0 15 5 15 10 0 6 -7 10 -15 10 -8 0
-15 -4 -15 -10z"/>
<path d="M290 1100 c0 -5 7 -10 15 -10 8 0 15 5 15 10 0 6 -7 10 -15 10 -8 0
-15 -4 -15 -10z"/>
<path d="M360 895 c0 -8 -5 -15 -10 -15 -20 0 -110 -99 -110 -120 0 -21 121
-150 140 -150 22 0 7 23 -45 75 -67 65 -70 87 -15 135 22 19 40 40 40 46 0 7
7 14 15 18 8 3 15 10 15 16 0 5 -7 10 -15 10 -8 0 -15 -7 -15 -15z"/>
<path d="M560 888 c0 -13 -9 -31 -20 -41 -11 -9 -20 -26 -20 -38 0 -11 -9 -32
-20 -46 -11 -14 -20 -39 -20 -56 0 -16 -6 -35 -14 -41 -22 -17 -24 -50 -3 -54
13 -3 17 3 17 27 0 20 5 31 14 31 15 0 26 21 26 48 0 8 7 23 15 32 9 10 19 35
22 56 4 22 12 44 19 49 20 16 21 49 2 53 -13 2 -18 -3 -18 -20z"/>
<path d="M650 900 c0 -6 25 -35 55 -65 33 -32 55 -62 55 -75 0 -13 -22 -43
-55 -75 -52 -52 -67 -75 -45 -75 20 0 140 129 140 150 0 13 -25 46 -65 86 -63
62 -85 76 -85 54z"/>
<path d="M602 426 c-6 -13 -20 -27 -31 -31 -28 -8 -26 -19 3 -33 13 -6 27 -20
31 -31 3 -12 10 -21 15 -21 5 0 12 9 15 21 4 11 18 25 31 31 13 6 24 14 24 18
0 4 -11 12 -24 18 -13 6 -27 20 -31 31 -8 28 -19 26 -33 -3z"/>
<path d="M1007 425 c-7 -16 8 -29 23 -20 10 6 2 35 -10 35 -4 0 -10 -7 -13
-15z"/>
<path d="M970 390 c-13 -9 -13 -11 0 -20 9 -6 18 -6 24 0 15 15 -6 31 -24 20z"/>
<path d="M1050 380 c0 -5 7 -10 15 -10 8 0 15 5 15 10 0 6 -7 10 -15 10 -8 0
-15 -4 -15 -10z"/>
<path d="M1006 352 c-2 -4 0 -14 5 -22 8 -13 10 -13 18 0 10 15 6 30 -9 30 -5
0 -11 -4 -14 -8z"/>
<path d="M760 300 c0 -5 7 -10 15 -10 8 0 15 5 15 10 0 6 -7 10 -15 10 -8 0
-15 -4 -15 -10z"/>
<path d="M850 300 c0 -5 7 -10 15 -10 8 0 15 5 15 10 0 6 -7 10 -15 10 -8 0
-15 -4 -15 -10z"/>
</g>
</svg>
