<?xml version="1.0" standalone="no"?>
<!DOCTYPE svg PUBLIC "-//W3C//DTD SVG 20010904//EN"
 "http://www.w3.org/TR/2001/REC-SVG-20010904/DTD/svg10.dtd">
<svg version="1.0" xmlns="http://www.w3.org/2000/svg"
 width="30.000000pt" height="30.000000pt" viewBox="0 0 30.000000 30.000000"
 preserveAspectRatio="xMidYMid meet">

<g transform="translate(0.000000,30.000000) scale(0.100000,-0.100000)"
fill="#000000" stroke="none">
<path d="M192 288 c-6 -6 -12 -18 -12 -25 0 -7 -11 -13 -25 -13 -20 0 -25 -5
-25 -25 0 -18 7 -28 25 -35 37 -14 33 -38 -6 -32 -20 3 -33 12 -39 28 -13 32
-48 32 -60 -1 -6 -15 -17 -25 -30 -25 -18 0 -20 -6 -20 -80 l0 -81 83 3 c78 3
82 4 82 26 0 12 -3 21 -6 20 -10 -5 -40 24 -36 35 2 6 39 9 90 8 l87 -2 0 30
c0 24 -4 31 -20 31 -13 0 -20 7 -20 20 0 13 7 20 20 20 16 0 20 7 20 30 0 24
-4 30 -23 30 -13 0 -26 9 -32 22 -12 27 -35 34 -53 16z m46 -26 c3 -16 10 -22
28 -22 30 0 34 -35 4 -43 -12 -3 -20 -14 -20 -26 0 -11 9 -26 20 -33 40 -25
23 -38 -50 -38 -55 0 -70 3 -70 15 0 8 9 19 20 25 11 6 20 20 20 31 0 12 -8
23 -20 26 -11 3 -20 14 -20 24 0 12 7 19 20 19 13 0 20 7 20 18 0 39 43 43 48
4z m-138 -86 c5 -13 16 -26 24 -28 14 -3 14 -6 1 -32 -20 -38 -19 -53 5 -66
11 -6 20 -17 20 -25 0 -12 -15 -15 -70 -15 l-70 0 0 70 c0 64 2 70 20 70 13 0
24 10 30 25 12 32 28 32 40 1z"/>
</g>
</svg>
