<?xml version="1.0" standalone="no"?>
<!DOCTYPE svg PUBLIC "-//W3C//DTD SVG 20010904//EN"
 "http://www.w3.org/TR/2001/REC-SVG-20010904/DTD/svg10.dtd">
<svg version="1.0" xmlns="http://www.w3.org/2000/svg"
 width="120.000000pt" height="120.000000pt" viewBox="0 0 120.000000 120.000000"
 preserveAspectRatio="xMidYMid meet">

<g transform="translate(0.000000,120.000000) scale(0.100000,-0.100000)"
fill="#000000" stroke="none">
<path d="M835 1087 c-11 -7 -109 -101 -218 -210 -193 -193 -241 -230 -261
-198 -13 20 -44 11 -80 -23 -37 -35 -49 -82 -23 -92 8 -3 24 -18 36 -34 l22
-30 -33 -37 c-18 -20 -70 -74 -115 -119 -46 -46 -83 -88 -83 -95 0 -15 139
-157 161 -164 13 -5 48 24 134 109 64 64 120 116 124 116 4 0 24 -16 44 -35
44 -42 70 -44 106 -7 38 37 46 66 27 93 -11 17 -12 27 -4 42 5 11 98 108 207
216 108 107 202 206 209 219 7 15 12 64 12 127 0 134 -1 135 -141 134 -58 -1
-113 -6 -124 -12z m131 -52 c18 -14 6 -27 -217 -250 -130 -129 -240 -235 -246
-235 -16 0 -63 47 -63 63 0 17 397 416 425 428 32 13 80 10 101 -6z m78 -87
c22 -63 7 -84 -211 -302 -113 -113 -212 -206 -220 -206 -16 0 -63 47 -63 63 0
16 463 478 475 474 5 -2 14 -15 19 -29z m-560 -467 c98 -98 137 -144 133 -155
-13 -34 -47 -11 -175 117 -121 122 -144 152 -125 170 15 16 35 0 167 -132z
m-74 -69 c55 -55 52 -65 -51 -169 -104 -104 -116 -108 -169 -55 -55 55 -52 65
51 169 104 104 116 108 169 55z"/>
</g>
</svg>
