<?xml version="1.0" standalone="no"?>
<!DOCTYPE svg PUBLIC "-//W3C//DTD SVG 20010904//EN"
 "http://www.w3.org/TR/2001/REC-SVG-20010904/DTD/svg10.dtd">
<svg version="1.0" xmlns="http://www.w3.org/2000/svg"
 width="30.000000pt" height="30.000000pt" viewBox="0 0 30.000000 30.000000"
 preserveAspectRatio="xMidYMid meet">

<g transform="translate(0.000000,30.000000) scale(0.100000,-0.100000)"
fill="#000000" stroke="none">
<path d="M12 288 c-17 -17 -17 -259 0 -276 17 -17 259 -17 276 0 17 17 17 259
0 276 -17 17 -259 17 -276 0z m128 -68 l0 -60 -60 0 -60 0 0 60 0 60 60 0 60
0 0 -60z m140 0 l0 -60 -60 0 -60 0 0 60 0 60 60 0 60 0 0 -60z m-140 -140 l0
-60 -60 0 -60 0 0 60 0 60 60 0 60 0 0 -60z m140 0 l0 -60 -60 0 -60 0 0 60 0
60 60 0 60 0 0 -60z"/>
<path d="M198 249 c-33 -19 -15 -69 24 -69 15 0 38 27 38 44 0 7 -31 36 -38
36 -4 0 -15 -5 -24 -11z m37 -30 c0 -7 -8 -15 -17 -17 -18 -3 -25 18 -11 32
10 10 28 1 28 -15z"/>
<path d="M56 82 c0 -19 7 -26 26 -28 21 -2 25 2 25 25 0 23 -5 28 -26 28 -22
0 -26 -5 -25 -25z"/>
</g>
</svg>
