<?xml version="1.0" encoding="UTF-8"?>
<!DOCTYPE svg PUBLIC "-//W3C//DTD SVG 1.1//EN" "http://www.w3.org/Graphics/SVG/1.1/DTD/svg11.dtd">
<svg xmlns="http://www.w3.org/2000/svg" version="1.1" width="16px" height="16px" style="shape-rendering:geometricPrecision; text-rendering:geometricPrecision; image-rendering:optimizeQuality; fill-rule:evenodd; clip-rule:evenodd" xmlns:xlink="http://www.w3.org/1999/xlink">
<g><path fill="black" d="M 6.5,-0.5 C 7.16667,-0.5 7.83333,-0.5 8.5,-0.5C 8.79654,3.39485 10.1299,4.06152 12.5,1.5C 13.731,2.65066 13.731,3.81732 12.5,5C 13.2438,6.03859 14.2438,6.53859 15.5,6.5C 15.5,7.16667 15.5,7.83333 15.5,8.5C 14.2438,8.46141 13.2438,8.96141 12.5,10C 13.6433,13.6973 12.8099,14.1973 10,11.5C 9.5899,12.9007 9.0899,14.234 8.5,15.5C 7.83333,15.5 7.16667,15.5 6.5,15.5C 6.53859,14.2438 6.03859,13.2438 5,12.5C 3.81732,13.731 2.65066,13.731 1.5,12.5C 2.98368,10.1339 2.31701,8.80052 -0.5,8.5C -0.5,7.83333 -0.5,7.16667 -0.5,6.5C 2.31701,6.19948 2.98368,4.86615 1.5,2.5C 2.65066,1.26899 3.81732,1.26899 5,2.5C 6.03859,1.75618 6.53859,0.75618 6.5,-0.5 Z"/></g>
</svg>
